<?xml version="1.0" standalone="no"?>
<!DOCTYPE svg PUBLIC "-//W3C//DTD SVG 20010904//EN"
 "http://www.w3.org/TR/2001/REC-SVG-20010904/DTD/svg10.dtd">
<svg version="1.0" xmlns="http://www.w3.org/2000/svg"
 width="800.000000pt" height="600.000000pt" viewBox="0 0 800.000000 600.000000"
 preserveAspectRatio="xMidYMid meet">

<g transform="translate(0.000000,600.000000) scale(0.100000,-0.100000)"
fill="#000000" stroke="none">
<path d="M3430 5259 c-74 -43 -139 -85 -145 -93 -23 -37 13 -23 144 53 127 75
162 103 143 115 -4 2 -68 -31 -142 -75z"/>
<path d="M3334 4997 c-463 -267 -472 -273 -478 -307 -8 -46 -8 -2095 0 -2103
3 -3 44 17 91 45 46 27 86 48 87 46 2 -1 11 -50 20 -108 10 -58 20 -115 23
-127 6 -27 137 -103 177 -103 14 0 35 9 46 20 25 25 19 65 -20 135 -42 76 -45
93 -18 97 21 3 23 7 21 66 -1 34 0 62 2 62 2 0 29 -47 60 -105 30 -57 60 -107
65 -110 5 -3 19 -26 32 -51 12 -25 35 -52 50 -60 21 -11 28 -21 27 -42 -2 -19
53 -121 181 -342 121 -208 184 -325 184 -345 1 -24 9 -34 45 -54 43 -24 44
-24 77 -6 40 22 43 39 9 61 -13 8 -40 43 -58 77 -19 34 -57 100 -84 147 -28
47 -76 130 -108 185 -32 55 -74 127 -93 160 -20 33 -57 100 -83 149 -27 49
-55 96 -63 105 -8 9 -21 32 -30 51 -8 19 -27 53 -40 75 -14 22 -39 65 -55 95
-17 30 -44 75 -60 100 -17 25 -31 48 -31 51 0 6 100 68 158 98 22 12 22 11 22
-47 0 -57 -1 -59 -24 -55 -24 5 -86 -24 -86 -39 0 -10 115 -76 145 -84 13 -3
33 -3 44 1 19 6 21 14 21 76 l0 69 47 -25 c52 -27 83 -31 115 -14 17 9 19 8
16 -7 -2 -10 -17 -23 -33 -28 -17 -6 -31 -11 -33 -12 -2 -1 10 -23 25 -48 22
-37 32 -46 49 -42 25 7 48 -32 33 -55 -13 -22 -11 -32 17 -76 18 -27 32 -39
44 -36 25 7 45 -23 33 -50 -8 -17 -5 -32 16 -70 22 -39 30 -47 48 -42 18 4 24
0 29 -20 3 -14 3 -32 0 -41 -3 -8 7 -37 22 -64 22 -39 31 -46 44 -39 23 13 40
-19 32 -59 -8 -39 37 -115 62 -105 26 10 45 -23 32 -52 -9 -20 -6 -32 16 -70
17 -28 25 -53 21 -65 -4 -14 3 -25 32 -44 44 -30 64 -32 98 -10 32 21 32 39 1
60 -22 14 -216 338 -216 360 0 5 -9 20 -20 34 -23 29 -168 276 -214 365 -17
33 -41 74 -53 92 -13 17 -23 33 -23 36 0 3 -16 32 -35 65 l-36 59 3 113 c2 92
6 115 19 123 13 8 55 -11 198 -93 l181 -104 -1 -305 c0 -169 0 -312 0 -318 1
-20 77 -17 85 3 3 9 6 130 6 271 0 140 3 253 8 251 4 -2 20 -10 35 -18 l28
-14 -2 -286 c-1 -158 1 -292 5 -298 9 -16 59 -15 74 0 14 14 18 708 5 708 -5
-1 -19 -7 -33 -15 -29 -16 -66 -19 -74 -6 -4 5 59 47 139 93 80 45 145 86 145
90 0 7 -39 -13 -105 -53 -16 -11 -37 -22 -45 -26 -8 -4 -43 -24 -77 -45 -64
-38 -107 -54 -132 -49 -8 1 -89 46 -180 99 -91 53 -190 109 -219 125 -50 27
-72 51 -59 63 5 5 37 -11 177 -91 36 -21 81 -46 100 -57 19 -11 68 -40 107
-64 40 -24 79 -44 86 -44 26 0 353 187 343 197 -2 3 -49 -21 -103 -53 -54 -32
-107 -64 -118 -70 -11 -6 -37 -21 -58 -32 -21 -12 -47 -22 -59 -22 -16 0 -333
175 -460 254 -16 10 -26 46 -13 46 10 0 66 -31 249 -136 132 -77 188 -104 213
-104 44 0 355 177 351 199 -2 8 -42 37 -89 65 -47 28 -99 61 -116 74 -17 12
-35 22 -40 22 -5 0 -71 36 -148 80 -98 56 -150 80 -173 80 -21 0 -58 -15 -101
-40 -75 -45 -88 -48 -94 -22 -3 9 -5 3 -6 -15 0 -17 -6 -35 -11 -38 -18 -11
-40 15 -40 46 0 16 -3 29 -6 29 -3 0 -50 -25 -103 -55 -54 -30 -104 -55 -112
-55 -14 0 -18 -17 -22 -94 -2 -32 -30 -57 -46 -41 -16 16 -1 315 14 315 39 0
57 117 24 155 -20 23 -13 37 37 72 28 20 34 21 70 8 41 -14 54 -8 54 28 0 21
-16 23 -24 2 -3 -8 -15 -15 -26 -15 -15 0 -20 7 -20 25 0 20 -5 25 -24 25 -43
0 -59 26 -51 87 6 50 5 56 -24 89 -49 56 -37 90 48 133 l40 21 48 -38 c26 -21
54 -46 62 -55 7 -10 19 -17 27 -17 19 0 28 -66 15 -110 -7 -24 -27 -52 -54
-75 l-42 -36 43 7 c60 9 72 -4 72 -82 0 -59 9 -79 25 -54 12 19 24 10 28 -22
2 -18 5 326 5 765 1 438 -1 797 -5 797 -5 -1 -220 -123 -479 -273z m394 56
c-2 -9 -18 -25 -36 -36 -31 -18 -32 -18 -32 0 0 10 12 26 28 35 34 22 44 22
40 1z m-298 -167 c0 -14 -61 -56 -81 -56 -21 0 -1 26 37 47 47 27 44 26 44 9z
m139 -85 c22 -14 7 -64 -39 -131 -22 -32 -40 -62 -40 -65 0 -3 20 6 45 21 25
14 48 24 51 21 4 -4 -99 -67 -111 -67 -12 0 -2 20 45 95 53 84 62 115 32 115
-24 0 -51 -29 -62 -66 l-8 -29 -1 28 c-1 19 9 38 28 58 32 31 38 33 60 20z
m-121 -181 c16 -1 16 -1 0 -11 -10 -5 -18 -22 -19 -37 -1 -25 -1 -25 -7 -5
l-7 23 -34 -21 c-18 -11 -35 -18 -38 -16 -2 3 15 45 39 93 l43 89 3 -57 c2
-47 6 -58 20 -58z m-330 81 c-6 -10 -18 -17 -25 -14 -17 7 2 33 23 33 11 0 12
-4 2 -19z m-114 -65 c-10 -8 -21 -12 -24 -10 -5 6 21 24 34 24 6 0 1 -6 -10
-14z m264 -3 c-33 -64 -59 -132 -67 -170 -8 -44 -9 -45 -10 -13 0 19 10 62 24
94 13 33 23 61 21 63 -2 2 -20 -6 -40 -18 -53 -31 -44 -14 12 21 46 29 67 37
60 23z m-140 -165 l-1 -93 -7 85 c-3 47 -4 88 -2 93 9 20 12 -1 10 -85z m-28
37 c-7 -9 -15 -13 -18 -10 -3 2 1 11 8 20 7 9 15 13 18 10 3 -2 -1 -11 -8 -20z
m1012 -1096 c59 -33 108 -65 108 -69 0 -25 -30 -17 -113 31 -115 65 -107 61
-107 55 0 -3 115 -71 245 -144 6 -3 4 2 -4 11 -11 14 -11 18 2 23 16 6 237
-111 237 -126 0 -16 -25 -17 -55 -3 -26 12 -28 12 -12 0 21 -18 22 -37 1 -37
-19 0 -104 49 -104 60 0 19 21 20 52 4 56 -28 17 1 -47 35 -33 18 -50 24 -37
15 12 -9 22 -20 22 -25 0 -20 -42 -7 -112 34 -134 79 -188 109 -188 103 0 -3
14 -12 30 -21 29 -15 42 -45 19 -45 -21 0 -159 84 -159 97 0 19 23 16 67 -8
36 -20 27 -9 -14 18 -15 10 -16 13 -4 22 10 6 22 6 35 -1 18 -10 19 -9 9 4
-13 15 -8 28 10 28 6 0 59 -27 119 -61z m-124 -80 c118 -68 138 -78 105 -53
-13 9 -23 20 -23 25 0 14 43 10 65 -7 20 -15 20 -16 1 -29 -18 -14 -18 -15 8
-26 34 -16 35 -43 1 -37 -34 7 -32 3 15 -23 22 -13 40 -29 40 -36 0 -15 -31
-18 -45 -5 -17 15 -125 74 -125 68 0 -3 27 -20 60 -38 58 -32 78 -59 43 -57
-28 0 -148 73 -148 89 0 8 8 14 18 14 25 -2 22 1 -28 30 -74 44 -51 64 28 25
59 -30 34 -9 -38 31 -35 20 -54 27 -46 17 11 -14 11 -18 -2 -23 -17 -6 -117
43 -117 58 0 19 29 18 64 -2 20 -12 36 -19 36 -16 0 3 -14 13 -30 21 -30 16
-32 35 -4 35 8 0 63 -28 122 -61z m-169 -5 c15 -11 19 -20 12 -27 -13 -13 -71
10 -71 29 0 19 30 18 59 -2z m105 -60 c48 -27 56 -38 32 -47 -17 -7 -118 51
-111 63 10 16 29 12 79 -16z m332 -90 c47 -28 53 -50 13 -47 l-24 2 23 -11
c26 -13 28 -26 7 -34 -16 -7 -65 20 -65 35 0 5 8 11 18 14 13 3 10 8 -15 23
-35 20 -44 44 -17 44 8 0 36 -12 60 -26z m-766 -23 l0 -40 -122 -70 c-91 -52
-124 -67 -131 -58 -6 8 -7 5 -3 -7 10 -30 -21 -111 -49 -126 -16 -9 -25 -23
-27 -44 -2 -23 -8 -31 -23 -31 -16 0 -21 8 -23 36 -2 21 -12 45 -23 54 -10 10
-19 26 -19 35 0 10 -7 20 -15 24 -17 6 -21 56 -4 56 7 0 9 9 5 22 -6 24 11 94
28 117 44 57 136 17 136 -59 0 -11 2 -20 4 -20 1 0 61 34 132 75 71 41 130 75
132 75 1 0 2 -18 2 -39z m127 -140 c10 -16 9 -24 -7 -43 l-19 -23 -1 43 c0 46
8 53 27 23z m-354 -245 l16 -35 -34 21 c-37 21 -43 33 -22 41 21 9 23 8 40
-27z"/>
<path d="M3695 5040 c-3 -6 1 -7 9 -4 18 7 21 14 7 14 -6 0 -13 -4 -16 -10z"/>
<path d="M3389 4643 c-13 -32 -26 -61 -27 -65 -2 -5 10 0 27 9 28 16 31 23 31
66 0 26 -1 47 -3 47 -2 0 -14 -26 -28 -57z"/>
<path d="M4050 3246 c0 -3 14 -12 30 -21 17 -9 30 -13 30 -11 0 3 -13 12 -30
21 -16 9 -30 13 -30 11z"/>
<path d="M3101 3119 c-13 -5 -22 -11 -19 -14 7 -8 78 7 78 16 0 11 -28 10 -59
-2z"/>
<path d="M3100 3030 c0 -5 9 -10 20 -10 11 0 20 5 20 10 0 6 -9 10 -20 10 -11
0 -20 -4 -20 -10z"/>
<path d="M3084 2942 c8 -15 24 -36 35 -46 21 -20 22 -20 40 0 10 10 21 31 25
46 6 26 5 26 -24 15 -22 -8 -38 -8 -60 0 l-30 11 14 -26z"/>
<path d="M3213 5125 c-3 -9 -3 -18 0 -21 9 -9 27 6 27 22 0 19 -19 18 -27 -1z"/>
<path d="M4309 3704 c-7 -9 -23 -20 -36 -25 -26 -10 -41 -55 -24 -72 8 -8 11
-7 11 5 0 8 7 21 15 28 13 11 18 10 31 -9 8 -11 33 -30 55 -41 37 -19 43 -29
51 -85 4 -26 20 -24 34 4 6 12 21 32 33 45 11 12 21 30 21 39 0 9 -24 42 -54
72 -45 46 -59 55 -88 55 -20 0 -41 -7 -49 -16z"/>
<path d="M3762 3610 c0 -19 2 -27 5 -17 2 9 2 25 0 35 -3 9 -5 1 -5 -18z"/>
<path d="M4280 3602 c0 -4 5 -13 12 -20 9 -9 9 -12 0 -12 -7 0 -12 -4 -12 -10
0 -5 7 -10 16 -10 16 0 16 -11 -1 -52 -5 -14 -2 -18 14 -18 17 0 21 6 21 35 0
19 -5 35 -11 35 -6 0 -8 9 -4 21 5 14 2 25 -6 30 -18 11 -29 11 -29 1z"/>
<path d="M4340 3572 c0 -10 21 -32 32 -32 16 0 8 19 -12 30 -11 6 -20 7 -20 2z"/>
<path d="M4346 3532 c-3 -6 -1 -14 5 -17 15 -10 25 3 12 16 -7 7 -13 7 -17 1z"/>
<path d="M3688 3518 c-7 -7 -20 -14 -28 -16 -22 -5 -40 -23 -40 -39 0 -10 14
-4 45 18 25 18 45 36 45 41 0 11 -6 10 -22 -4z"/>
<path d="M4855 2291 c-99 -59 -151 -95 -153 -107 -2 -14 11 -27 45 -45 27 -15
147 -84 267 -153 121 -69 229 -126 240 -126 12 0 48 16 81 36 33 20 76 46 95
56 120 67 160 94 160 108 0 21 -521 320 -557 320 -17 -1 -89 -37 -178 -89z
m216 9 l24 -19 -23 -1 c-30 0 -64 18 -57 31 10 15 31 11 56 -11z m31 -59 c56
-33 104 -64 106 -70 5 -14 -23 -14 -51 0 -43 22 -1 -9 48 -36 28 -15 42 -20
33 -12 -26 21 -22 30 12 25 23 -4 27 -2 19 9 -22 26 18 25 60 -1 62 -39 46
-67 -17 -30 -26 15 -26 15 -4 -1 29 -23 28 -38 -3 -33 -33 7 -32 2 5 -17 33
-17 40 -35 14 -35 -18 0 -260 135 -269 150 -11 18 16 20 47 4 48 -24 22 -2
-37 32 -33 19 -45 22 -36 11 8 -10 11 -20 8 -24 -8 -8 -83 25 -98 43 -17 21 8
26 43 9 33 -16 33 -16 10 2 -21 17 -21 33 -1 33 5 0 54 -27 111 -59z m87 -4
c55 -33 75 -57 48 -57 -20 0 -137 70 -137 81 0 17 36 8 89 -24z m-241 1 c17
-17 15 -28 -5 -28 -17 -1 -17 -1 0 -14 17 -13 23 -36 10 -36 -5 0 -27 10 -50
22 -59 31 -58 66 0 37 20 -9 20 -9 5 4 -10 8 -15 17 -11 20 10 11 38 8 51 -5z
m-42 -68 c46 -25 71 -35 68 -25 -8 20 18 20 59 0 38 -19 13 2 -34 28 -23 13
-29 21 -21 29 14 14 142 -56 142 -77 0 -18 -5 -18 -31 -5 -10 6 -19 9 -19 6 0
-2 52 -34 115 -71 110 -64 142 -92 91 -83 -19 4 -22 1 -18 -14 7 -28 -9 -22
-112 38 -95 55 -120 81 -70 71 32 -6 22 3 -41 37 -27 15 -40 20 -27 10 12 -9
22 -20 22 -25 0 -12 -33 -12 -45 0 -6 5 -37 23 -70 41 -87 48 -95 54 -95 67 0
19 6 17 86 -27z m527 -74 c23 -18 21 -26 -7 -26 -25 0 -51 22 -39 33 10 10 26
8 46 -7z"/>
<path d="M5115 2053 c6 -6 37 -26 70 -44 33 -18 56 -28 50 -22 -5 5 -37 25
-70 43 -33 18 -55 28 -50 23z"/>
<path d="M3114 2283 c8 -16 21 -37 30 -48 15 -19 15 -19 16 12 0 22 -7 37 -22
47 -33 23 -40 20 -24 -11z"/>
<path d="M2425 2020 c-8 -13 20 -24 40 -16 8 3 15 10 15 16 0 13 -47 13 -55 0z"/>
<path d="M4668 2012 c13 -10 40 -27 60 -37 21 -11 61 -34 90 -52 29 -18 54
-33 56 -33 3 0 53 -29 113 -64 59 -35 135 -77 167 -94 l60 -31 27 20 c15 10
29 19 32 19 9 0 260 149 271 161 15 16 -18 -2 -136 -72 -141 -84 -180 -103
-208 -100 -14 1 -88 39 -165 83 -77 45 -153 89 -170 98 -16 10 -70 41 -118 69
-91 52 -120 65 -79 33z"/>
<path d="M2333 1975 c-18 -7 -51 -31 -75 -53 -24 -22 -56 -46 -73 -55 -16 -9
-23 -16 -15 -17 19 0 54 23 97 63 l32 30 27 -22 c30 -24 44 -27 44 -9 0 6 11
25 24 43 l24 31 -27 2 c-14 0 -40 -5 -58 -13z"/>
<path d="M2470 1985 c0 -4 11 -20 24 -36 13 -15 26 -34 29 -41 3 -9 13 -7 37
11 l32 23 37 -35 c43 -42 72 -57 103 -56 17 1 15 3 -12 11 -19 5 -53 27 -76
48 -22 20 -52 45 -66 54 -26 17 -108 33 -108 21z"/>
<path d="M2080 1869 c0 -8 59 -24 65 -17 2 2 -12 8 -31 14 -19 6 -34 8 -34 3z"/>
<path d="M2765 1860 c-7 -12 2 -12 30 0 19 8 19 9 -2 9 -12 1 -25 -3 -28 -9z"/>
<path d="M3070 1784 c0 -52 40 -58 106 -16 66 41 58 53 -31 50 l-75 -3 0 -31z"/>
<path d="M3295 1730 c-11 -5 -30 -6 -43 -3 -22 5 -23 3 -20 -33 2 -32 7 -40
26 -42 31 -5 137 57 123 71 -13 13 -59 17 -86 7z"/>
<path d="M4837 1641 c-81 -48 -152 -92 -158 -98 -8 -8 -4 -16 13 -28 50 -36
524 -305 537 -305 27 0 341 184 341 200 0 5 -44 34 -97 66 -148 85 -218 126
-332 193 -59 34 -116 61 -130 60 -15 0 -92 -40 -174 -88z m270 -23 c83 -47
116 -79 81 -78 -20 1 -191 104 -196 118 -7 22 21 13 115 -40z m15 -54 c73 -43
139 -83 147 -90 27 -25 0 -29 -41 -6 -23 12 -43 20 -45 18 -3 -2 18 -16 46
-32 51 -27 64 -44 35 -44 -25 0 -134 64 -134 79 0 9 7 11 23 8 22 -6 22 -6 2
9 -11 8 -62 38 -112 67 -51 29 -93 55 -93 60 0 20 51 0 172 -69z m-55 -61
c129 -75 151 -93 116 -93 -14 0 -225 115 -260 143 -12 9 -9 27 4 27 3 0 66
-35 140 -77z m-222 35 c26 -12 35 -38 13 -38 -18 1 -48 25 -48 39 0 14 3 14
35 -1z m504 -60 c90 -53 107 -68 73 -68 -19 0 -168 82 -192 105 -33 34 32 13
119 -37z m-353 21 c40 -24 44 -43 9 -37 -13 3 -22 1 -19 -3 3 -5 2 -13 -1 -19
-8 -13 -95 30 -95 47 0 17 14 16 53 -3 l32 -16 -30 26 c-30 25 -30 25 -6 26
13 0 39 -9 57 -21z m173 -100 c126 -74 117 -67 104 -80 -8 -8 -39 5 -109 47
-117 68 -125 74 -118 85 8 14 10 13 123 -52z m181 31 c43 -22 55 -36 40 -45
-14 -8 -90 35 -90 52 0 17 4 17 50 -7z m-259 -32 c53 -29 77 -58 49 -58 -16 0
-140 73 -140 82 0 16 34 7 91 -24z m189 -18 c41 -21 52 -40 24 -40 -18 0 -94
42 -94 53 0 13 30 7 70 -13z m61 10 c24 -13 25 -30 2 -30 -19 1 -53 22 -53 34
0 9 29 7 51 -4z m-120 -69 c13 -11 21 -23 17 -26 -11 -11 -68 15 -68 31 0 20
24 17 51 -5z"/>
</g>
</svg>
