<svg xmlns="http://www.w3.org/2000/svg" viewBox="0 0 137.7 98"><style>.st156{fill-rule:evenodd;clip-rule:evenodd;fill:#fff}</style><g id="Layer_1"><path d="M129.7 0L11 2.5c-4.1.1-7.5 3.4-7.7 7.5L0 75.4c-.2 4.4 3.3 8.2 7.7 8.3l103.9 2.2c.1.1.2.3.4.4l7.5 10c1 1.3 1.9 1.7 3 1.7 1.2 0 2.1-.8 2.1-1.7v-10-.1h1.7c4.3.1 7.8-3.2 8-7.5l3.5-70.5c.1-4.5-3.5-8.3-8.1-8.2z" fill-rule="evenodd" clip-rule="evenodd" fill="#333"/><path class="st156" d="M40 14.4c-3.7 6.4-7.9 16.3-8.7 21 3.4-.3 9.4-3 10.7-3.4 1.9-.3 3.7.9 4 2.8.3 1.9-1.3 3.7-2.8 4-4.7 1.7-11.8 4.9-17.2 4.2-1-.1-1.8-1.1-2-2.1-1.5-8.7 6.3-23.5 10.7-31 1.2-1.5 3.4-1.7 4.9-.5 1.4 1.3 1.6 3.5.4 5zM113.4 20.3l1.7-4.5c-3.6.5-9.8 3.8-11 7.6 2.6 1.4 7.1 1.3 10 1-1-1.1-1.4-2.7-.7-4.1zm4.7 4.7c.3.1.6.3.9.4 1.5.8 2.7 2.1 3 3.9.6 4.8-4.3 8.3-7.9 10.3-3.8 2.1-8.5 3.7-12.9 3.6-2.7-.1-5.4-1-6.8-3.4-.9-1.5-1-3.5-.4-5.2.8-2.4 2.1-4.3 3.6-6.3.3-.4.6-.6 1-.9-.3-.4-.5-.8-.7-1.2-.8-2-.7-4.6.4-6.5 2.3-4.2 6.8-7.1 11.1-9.1 3.1-1.4 7.1-2.6 10.1-.5 2.1 1.4 3 4.2 2.6 6.7-.4 2.5-1.4 4.5-2.4 6.8-.4.5-1 1-1.6 1.4zm-14.4 5.5c0 .7-.3 1.4-.7 2l-2.2 3.5c-.7 2.1 11.5-2 13.1-4.7l-.5-.1c-3.3-.1-6.6.1-9.7-.7zM87.7 17.4c-4.3 5.7-7.9 12.1-10.9 19.1-.6 1.8-2.5 2.9-4.3 2.3-1.8-.6-2.9-2.5-2.3-4.3 3.5-7.7 7.5-15 12.3-21.8 1.3-1.4 3.5-1.5 4.9-.2 1.4 1.3 1.5 3.4.3 4.9z"/><path class="st156" d="M73.6 10.8c9.8-1.3 17.6-2.2 23.3-1.7 1.9-.2 3.6 1.2 3.8 3.1.2 1.9-1.2 3.6-3.1 3.8-7.7-.3-15.2.6-23.1 1.7-1.9.3-3.6-1.1-3.9-3-.2-1.9 1.1-3.7 3-3.9zM57.2 18c-2.6 4.7-4.7 9.8-6.2 15.5 3.9-2.2 7.9-3.8 11.9-4.9 1.8-.6 3.8.3 4.4 2.1.6 1.8-.3 3.8-2.1 4.4-5.1 1.2-10.1 3.4-15 6-1.7.9-4 .5-5.5-.9-4.5-4.4 4.5-20.8 6.3-25.2.8-1.7 2.9-2.4 4.6-1.6 1.7.8 2.4 2.9 1.6 4.6z"/><path class="st156" d="M48.9 23.6c5.1-2 10.1-3.4 15.2-4.1 1.9-.2 3.6 1.1 3.9 3 .2 1.9-1.1 3.6-3 3.9-4.5.6-9 1.8-13.4 3.7-1.8.7-3.8-.2-4.5-1.9-.8-1.8.1-3.8 1.8-4.6zM98.2 12.8c1.6-2.3 3.5-4.3 5.6-6.1.8-.6 2.2-.5 3.1.3.9.8 1 1.9.2 2.6-1.9 1.5-3.6 3.3-4.9 5.4-.6.8-1.9 1-3 .4s-1.5-1.7-1-2.6zM52 13.2c5.6-1.8 11.4-3.1 17.3-3.6 1.9-.4 3.7.8 4.1 2.7.4 1.9-.8 3.7-2.7 4.1-5.6.6-11 1.7-16.5 3.4-1.8.6-3.8-.4-4.4-2.2-.6-1.8.4-3.8 2.2-4.4zM48.1 38c.6 0 1.2.5 1.2 1.2V46c0 .6-.5 1.2-1.2 1.2-.6 0-1.2-.5-1.2-1.2v-6.8c.1-.7.6-1.2 1.2-1.2z"/><g><path class="st156" d="M106.4 54.8c-4.3 5.7-7.9 12.1-10.9 19.1-.6 1.8-2.5 2.9-4.3 2.3-1.8-.6-2.9-2.5-2.3-4.3 3.5-7.7 7.5-15 12.3-21.8 1.3-1.4 3.5-1.5 4.9-.2 1.4 1.3 1.6 3.4.3 4.9z"/><path class="st156" d="M92.4 48.2c9.8-1.3 17.6-2.2 23.3-1.7 1.9-.2 3.6 1.2 3.8 3.1.2 1.9-1.2 3.6-3.1 3.8-7.7-.3-15.2.6-23.1 1.7-1.9.3-3.6-1.1-3.9-3-.3-1.9 1.1-3.7 3-3.9zM51.7 49.5c-4.3 6.4-7.7 13.8-11 24.2-.5 1.9-2.3 3-4.2 2.5-1.9-.5-3-2.3-2.5-4.2 2.9-9.1 6.4-18 11.7-26 1-1.7 3.1-2.2 4.7-1.3 1.7 1 2.2 3.2 1.3 4.8z"/><path class="st156" d="M42.1 60.3c4.9-2 9.9-3.1 14.8-3.9 1.9-.1 3.5 1.4 3.6 3.3.1 1.9-1.4 3.5-3.3 3.6-4.2.5-8.5 1.6-12.8 3.5-1.8.6-3.8-.3-4.4-2.1-.7-1.8.3-3.8 2.1-4.4z"/><path class="st156" d="M67.1 49.8c-3.8 7.3-7.3 13.5-9.2 21.5 0 1.9-1.5 3.5-3.5 3.5-1.9 0-3.5-1.5-3.5-3.5C53 61.8 56.5 55 61 46.4c1-1.7 3.1-2.2 4.7-1.3 1.7.9 2.3 3.1 1.4 4.7z"/><path class="st156" d="M54.2 70.8c.6 0 1.2.5 1.2 1.2v4.7c0 .6-.5 1.2-1.2 1.2-.6 0-1.2-.5-1.2-1.2V72c.1-.6.6-1.2 1.2-1.2z"/><g><path class="st156" d="M57.7 73.5c2.4-9.2 14.8-25.5 24.7-28.9 2.3-.8 4.9 0 5.9 2.3.5 1.2.8 2.7.4 3.9-2.4 8.2-4.2 16.2-4.9 24-.2 1.9-1.5 3.5-3.4 3.5s-3.7-1.5-3.5-3.4c.5-7.1 2.1-14.1 4.3-21.3-4.8 2.8-15 15.5-16.6 20.8-.6 1.8-2.1 3.2-3.9 2.9-2-.2-3.5-2-3-3.8z"/><path class="st156" d="M65 64.2c5.5-2.2 10.1-3.4 15.9-4.5 1.9 0 3.5 1.5 3.5 3.5 0 1.9-1.5 3.5-3.5 3.5-4.9.9-8.8 2.2-13.4 4.1-1.8.7-3.8-.2-4.5-2-.6-1.9.2-3.9 2-4.6zM60.7 72.8c.6 0 1.2.5 1.2 1.2v4.7c0 .6-.5 1.2-1.2 1.2-.6 0-1.2-.5-1.2-1.2V74c0-.6.5-1.2 1.2-1.2z"/></g><g><path class="st156" d="M36.4 51.2c-6 .5-14.4 9.8-15 15.5.2 2.3 9-1.7 10-2.2 2.3-1.2 3.8-.5 4.8 1.1s.5 3.8-1.1 4.8c-5.6 3.2-21.1 8.3-20.6-3.5.4-10.6 11.8-21 21.9-22.6 1.9 0 3.4 1.6 3.4 3.5s-.9 3.2-3.4 3.4z"/><path class="st156" d="M21.6 70.4c.6 0 1.2.5 1.2 1.2v4.7c0 .6-.5 1.2-1.2 1.2-.6 0-1.2-.5-1.2-1.2v-4.7c0-.7.5-1.2 1.2-1.2z"/></g></g></g></svg>